<?xml version="1.0" encoding="UTF-8"?>
<!DOCTYPE svg PUBLIC "-//W3C//DTD SVG 1.1//EN" "http://www.w3.org/Graphics/SVG/1.1/DTD/svg11.dtd">
<!-- Creator: CorelDRAW 2021.5 -->
<svg xmlns="http://www.w3.org/2000/svg" xml:space="preserve" width="199px" height="72px" version="1.1" style="shape-rendering:geometricPrecision; text-rendering:geometricPrecision; image-rendering:optimizeQuality; fill-rule:evenodd; clip-rule:evenodd"
viewBox="0 0 199 71.92"
 xmlns:xlink="http://www.w3.org/1999/xlink"
 xmlns:xodm="http://www.corel.com/coreldraw/odm/2003">
 <defs>
  <style type="text/css">
   <![CDATA[
    .fil1 {fill:#6990FF;fill-rule:nonzero}
    .fil0 {fill:white;fill-rule:nonzero}
   ]]>
  </style>
 </defs>
 <g id="Слой_x0020_1">
  <metadata id="CorelCorpID_0Corel-Layer"/>
  <path class="fil0" d="M9.24 52.12c-1.8,0 -3.42,-0.29 -4.85,-0.88 -1.42,-0.58 -2.57,-1.45 -3.42,-2.6 -0.85,-1.14 -1.31,-2.52 -1.35,-4.14l6.39 0c0.09,0.91 0.41,1.61 0.95,2.09 0.54,0.48 1.24,0.72 2.11,0.72 0.88,0 1.59,-0.2 2.1,-0.61 0.52,-0.41 0.78,-0.98 0.78,-1.71 0,-0.61 -0.21,-1.11 -0.62,-1.51 -0.41,-0.4 -0.91,-0.72 -1.51,-0.98 -0.6,-0.26 -1.45,-0.55 -2.55,-0.88 -1.59,-0.49 -2.89,-0.98 -3.89,-1.47 -1.01,-0.5 -1.88,-1.22 -2.6,-2.18 -0.73,-0.96 -1.09,-2.21 -1.09,-3.76 0,-2.3 0.83,-4.09 2.49,-5.39 1.66,-1.3 3.83,-1.95 6.5,-1.95 2.71,0 4.9,0.65 6.57,1.95 1.66,1.3 2.55,3.11 2.67,5.42l-6.5 0c-0.05,-0.79 -0.34,-1.42 -0.88,-1.87 -0.54,-0.46 -1.23,-0.69 -2.07,-0.69 -0.73,0 -1.31,0.19 -1.76,0.58 -0.44,0.39 -0.67,0.94 -0.67,1.67 0,0.79 0.38,1.42 1.13,1.86 0.75,0.45 1.92,0.93 3.51,1.44 1.59,0.54 2.89,1.05 3.88,1.55 1,0.49 1.86,1.2 2.58,2.14 0.73,0.93 1.09,2.14 1.09,3.62 0,1.4 -0.35,2.68 -1.07,3.82 -0.71,1.15 -1.75,2.06 -3.11,2.74 -1.36,0.68 -2.96,1.02 -4.81,1.02z"/>
  <path id="_1" class="fil0" d="M27.93 32.03l0 4.99 8.04 0 0 4.64 -8.04 0 0 5.4 9.09 0 0 4.82 -15.1 0 0 -24.66 15.1 0 0 4.81 -9.09 0z"/>
  <path id="_2" class="fil0" d="M46.93 47.24l7.86 0 0 4.64 -13.87 0 0 -24.66 6.01 0 0 20.02z"/>
  <path id="_3" class="fil0" d="M63.68 47.24l7.87 0 0 4.64 -13.88 0 0 -24.66 6.01 0 0 20.02z"/>
  <path id="_4" class="fil0" d="M80.43 32.03l0 4.99 8.05 0 0 4.64 -8.05 0 0 5.4 9.1 0 0 4.82 -15.1 0 0 -24.66 15.1 0 0 4.81 -9.1 0z"/>
  <path id="_5" class="fil0" d="M106 51.88l-5.13 -9.31 -1.44 0 0 9.31 -6 0 0 -24.66 10.08 0c1.94,0 3.6,0.34 4.97,1.02 1.37,0.68 2.39,1.61 3.07,2.79 0.68,1.18 1.02,2.5 1.02,3.95 0,1.64 -0.46,3.1 -1.39,4.39 -0.92,1.29 -2.29,2.2 -4.09,2.74l5.69 9.77 -6.78 0zm-6.57 -13.56l3.73 0c1.1,0 1.92,-0.27 2.47,-0.81 0.55,-0.54 0.83,-1.3 0.83,-2.28 0,-0.94 -0.28,-1.68 -0.83,-2.21 -0.55,-0.54 -1.37,-0.81 -2.47,-0.81l-3.73 0 0 6.11z"/>
  <path id="_6" class="fil1" d="M115.31 39.51c0,-2.43 0.53,-4.6 1.58,-6.51 1.05,-1.91 2.52,-3.4 4.41,-4.46 1.88,-1.07 4.02,-1.6 6.41,-1.6 2.92,0 5.43,0.77 7.51,2.32 2.09,1.54 3.48,3.65 4.18,6.32l-6.6 0c-0.49,-1.03 -1.19,-1.82 -2.09,-2.35 -0.9,-0.54 -1.93,-0.81 -3.07,-0.81 -1.85,0 -3.35,0.64 -4.5,1.93 -1.15,1.29 -1.72,3.01 -1.72,5.16 0,2.16 0.57,3.88 1.72,5.17 1.15,1.28 2.65,1.93 4.5,1.93 1.14,0 2.17,-0.27 3.07,-0.81 0.9,-0.54 1.6,-1.32 2.09,-2.35l6.6 0c-0.7,2.67 -2.09,4.77 -4.18,6.3 -2.08,1.53 -4.59,2.3 -7.51,2.3 -2.39,0 -4.53,-0.53 -6.41,-1.6 -1.89,-1.06 -3.36,-2.54 -4.41,-4.44 -1.05,-1.9 -1.58,-4.06 -1.58,-6.5z"/>
  <path id="_7" class="fil1" d="M154.75 52.12c-2.32,0 -4.44,-0.54 -6.37,-1.61 -1.94,-1.08 -3.47,-2.59 -4.61,-4.52 -1.13,-1.93 -1.7,-4.1 -1.7,-6.51 0,-2.41 0.57,-4.58 1.7,-6.5 1.14,-1.92 2.67,-3.42 4.61,-4.5 1.93,-1.07 4.05,-1.61 6.37,-1.61 2.32,0 4.44,0.54 6.38,1.61 1.93,1.08 3.45,2.58 4.56,4.5 1.11,1.92 1.67,4.09 1.67,6.5 0,2.41 -0.56,4.58 -1.69,6.51 -1.12,1.93 -2.64,3.44 -4.56,4.52 -1.92,1.07 -4.04,1.61 -6.36,1.61zm0 -5.48c1.97,0 3.54,-0.65 4.72,-1.96 1.19,-1.32 1.78,-3.05 1.78,-5.2 0,-2.18 -0.59,-3.92 -1.78,-5.22 -1.18,-1.3 -2.75,-1.95 -4.72,-1.95 -1.99,0 -3.58,0.65 -4.76,1.93 -1.18,1.29 -1.77,3.04 -1.77,5.24 0,2.18 0.59,3.91 1.77,5.21 1.18,1.3 2.77,1.95 4.76,1.95z"/>
  <path id="_8" class="fil1" d="M198.62 27.22l0 24.66 -6.01 0 0 -14.79 -5.51 14.79 -4.85 0 -5.55 -14.83 0 14.83 -6 0 0 -24.66 7.09 0 6.92 17.07 6.85 -17.07 7.06 0z"/>
 </g>
</svg>
