<?xml version="1.0" encoding="UTF-8"?>
<!DOCTYPE svg PUBLIC "-//W3C//DTD SVG 1.1//EN" "http://www.w3.org/Graphics/SVG/1.1/DTD/svg11.dtd">
<!-- Creator: CorelDRAW 2021.5 -->
<svg xmlns="http://www.w3.org/2000/svg" xml:space="preserve" width="432px" height="156px" version="1.1" style="shape-rendering:geometricPrecision; text-rendering:geometricPrecision; image-rendering:optimizeQuality; fill-rule:evenodd; clip-rule:evenodd"
viewBox="0 0 432 156.13"
 xmlns:xlink="http://www.w3.org/1999/xlink"
 xmlns:xodm="http://www.corel.com/coreldraw/odm/2003">
 <defs>
  <style type="text/css">
   <![CDATA[
    .fil0 {fill:#1C2528;fill-rule:nonzero}
    .fil1 {fill:#6990FF;fill-rule:nonzero}
   ]]>
  </style>
 </defs>
 <g id="Слой_x0020_1">
  <metadata id="CorelCorpID_0Corel-Layer"/>
  <path class="fil0" d="M20.06 113.15c-3.91,0 -7.42,-0.64 -10.52,-1.91 -3.1,-1.27 -5.58,-3.15 -7.43,-5.64 -1.86,-2.49 -2.84,-5.49 -2.94,-9l13.88 0c0.2,1.99 0.89,3.5 2.06,4.54 1.16,1.04 2.69,1.56 4.57,1.56 1.93,0 3.46,-0.44 4.57,-1.33 1.12,-0.89 1.68,-2.12 1.68,-3.7 0,-1.32 -0.44,-2.41 -1.33,-3.28 -0.89,-0.86 -1.99,-1.57 -3.28,-2.13 -1.3,-0.56 -3.14,-1.2 -5.53,-1.91 -3.46,-1.07 -6.28,-2.13 -8.46,-3.2 -2.19,-1.07 -4.07,-2.64 -5.64,-4.73 -1.58,-2.08 -2.37,-4.8 -2.37,-8.16 0,-4.98 1.81,-8.88 5.41,-11.7 3.61,-2.82 8.32,-4.23 14.11,-4.23 5.9,0 10.65,1.41 14.26,4.23 3.61,2.82 5.54,6.75 5.79,11.78l-14.1 0c-0.1,-1.73 -0.74,-3.09 -1.91,-4.08 -1.17,-0.99 -2.67,-1.49 -4.5,-1.49 -1.57,0 -2.84,0.42 -3.81,1.26 -0.96,0.84 -1.45,2.05 -1.45,3.62 0,1.73 0.82,3.08 2.44,4.04 1.63,0.97 4.17,2.01 7.63,3.13 3.45,1.17 6.26,2.29 8.42,3.36 2.16,1.06 4.03,2.61 5.61,4.65 1.57,2.03 2.36,4.65 2.36,7.85 0,3.05 -0.78,5.82 -2.33,8.31 -1.55,2.49 -3.8,4.47 -6.74,5.95 -2.95,1.47 -6.43,2.21 -10.45,2.21z"/>
  <path id="_1" class="fil0" d="M60.62 69.54l0 10.82 17.46 0 0 10.07 -17.46 0 0 11.74 19.75 0 0 10.45 -32.79 0 0 -53.53 32.79 0 0 10.45 -19.75 0z"/>
  <path id="_2" class="fil0" d="M101.87 102.55l17.08 0 0 10.07 -30.12 0 0 -53.53 13.04 0 0 43.46z"/>
  <path id="_3" class="fil0" d="M138.24 102.55l17.08 0 0 10.07 -30.12 0 0 -53.53 13.04 0 0 43.46z"/>
  <path id="_4" class="fil0" d="M174.61 69.54l0 10.82 17.46 0 0 10.07 -17.46 0 0 11.74 19.74 0 0 10.45 -32.78 0 0 -53.53 32.78 0 0 10.45 -19.74 0z"/>
  <path id="_5" class="fil0" d="M230.11 112.62l-11.13 -20.21 -3.12 0 0 20.21 -13.04 0 0 -53.53 21.88 0c4.22,0 7.82,0.74 10.79,2.21 2.97,1.48 5.2,3.5 6.67,6.06 1.47,2.57 2.21,5.43 2.21,8.58 0,3.56 -1,6.74 -3.01,9.53 -2.01,2.8 -4.97,4.78 -8.88,5.95l12.35 21.2 -14.72 0zm-14.25 -29.44l8.08 0c2.39,0 4.18,-0.58 5.37,-1.75 1.2,-1.17 1.8,-2.82 1.8,-4.95 0,-2.04 -0.6,-3.64 -1.8,-4.81 -1.19,-1.17 -2.98,-1.75 -5.37,-1.75l-8.08 0 0 13.26z"/>
  <path id="_6" class="fil1" d="M250.32 85.78c0,-5.29 1.14,-10 3.43,-14.15 2.29,-4.14 5.48,-7.37 9.57,-9.68 4.09,-2.31 8.73,-3.47 13.91,-3.47 6.36,0 11.79,1.68 16.32,5.03 4.52,3.36 7.55,7.93 9.07,13.73l-14.33 0c-1.07,-2.24 -2.58,-3.94 -4.54,-5.11 -1.95,-1.17 -4.18,-1.75 -6.67,-1.75 -4.02,0 -7.27,1.39 -9.76,4.19 -2.49,2.79 -3.74,6.53 -3.74,11.21 0,4.67 1.25,8.41 3.74,11.2 2.49,2.8 5.74,4.2 9.76,4.2 2.49,0 4.72,-0.59 6.67,-1.75 1.96,-1.17 3.47,-2.88 4.54,-5.11l14.33 0c-1.52,5.79 -4.55,10.35 -9.07,13.68 -4.53,3.33 -9.96,5 -16.32,5 -5.18,0 -9.82,-1.16 -13.91,-3.47 -4.09,-2.32 -7.28,-5.53 -9.57,-9.65 -2.29,-4.11 -3.43,-8.82 -3.43,-14.1z"/>
  <path id="_7" class="fil1" d="M335.94 113.15c-5.03,0 -9.64,-1.17 -13.84,-3.51 -4.19,-2.34 -7.52,-5.6 -9.99,-9.8 -2.46,-4.19 -3.69,-8.9 -3.69,-14.14 0,-5.23 1.23,-9.94 3.69,-14.1 2.47,-4.17 5.8,-7.43 9.99,-9.76 4.2,-2.34 8.81,-3.51 13.84,-3.51 5.03,0 9.64,1.17 13.84,3.51 4.19,2.33 7.5,5.59 9.91,9.76 2.42,4.16 3.62,8.87 3.62,14.1 0,5.24 -1.22,9.95 -3.66,14.14 -2.44,4.2 -5.74,7.46 -9.91,9.8 -4.17,2.34 -8.77,3.51 -13.8,3.51zm0 -11.9c4.27,0 7.69,-1.42 10.26,-4.27 2.56,-2.84 3.85,-6.6 3.85,-11.28 0,-4.73 -1.29,-8.5 -3.85,-11.32 -2.57,-2.82 -5.99,-4.23 -10.26,-4.23 -4.32,0 -7.76,1.39 -10.33,4.19 -2.57,2.8 -3.85,6.58 -3.85,11.36 0,4.73 1.28,8.5 3.85,11.32 2.57,2.82 6.01,4.23 10.33,4.23z"/>
  <path id="_8" class="fil1" d="M431.17 59.09l0 53.53 -13.04 0 0 -32.1 -11.97 32.1 -10.52 0 -12.05 -32.18 0 32.18 -13.03 0 0 -53.53 15.4 0 15.02 37.06 14.86 -37.06 15.33 0z"/>
 </g>
</svg>
