<?xml version="1.0" encoding="UTF-8"?>
<!DOCTYPE svg PUBLIC "-//W3C//DTD SVG 1.1//EN" "http://www.w3.org/Graphics/SVG/1.1/DTD/svg11.dtd">
<!-- Creator: CorelDRAW 2021.5 -->
<svg xmlns="http://www.w3.org/2000/svg" xml:space="preserve" width="150px" height="150px" version="1.1" style="shape-rendering:geometricPrecision; text-rendering:geometricPrecision; image-rendering:optimizeQuality; fill-rule:evenodd; clip-rule:evenodd"
viewBox="0 0 150 150"
 xmlns:xlink="http://www.w3.org/1999/xlink"
 xmlns:xodm="http://www.corel.com/coreldraw/odm/2003">
 <defs>
  <style type="text/css">
   <![CDATA[
    .fil0 {fill:#698FFE}
    .fil1 {fill:white;fill-rule:nonzero}
   ]]>
  </style>
 </defs>
 <g id="Слой_x0020_1">
  <metadata id="CorelCorpID_0Corel-Layer"/>
  <ellipse class="fil0" cx="74" cy="75.56" rx="65" ry="66.44"/>
  <path class="fil1" d="M74.9 111.51c-5.13,0 -9.73,-0.84 -13.8,-2.5 -4.07,-1.67 -7.32,-4.14 -9.75,-7.4 -2.43,-3.27 -3.72,-7.2 -3.85,-11.8l18.2 0c0.27,2.59 1.17,4.58 2.7,5.95 1.53,1.36 3.53,2.04 6,2.04 2.53,0 4.53,-0.58 6,-1.74 1.47,-1.17 2.2,-2.79 2.2,-4.86 0,-1.73 -0.58,-3.16 -1.75,-4.29 -1.17,-1.14 -2.6,-2.07 -4.3,-2.8 -1.7,-0.74 -4.12,-1.57 -7.25,-2.51 -4.53,-1.39 -8.23,-2.79 -11.1,-4.2 -2.87,-1.39 -5.33,-3.46 -7.4,-6.19 -2.07,-2.74 -3.1,-6.3 -3.1,-10.71 0,-6.53 2.37,-11.64 7.1,-15.35 4.73,-3.7 10.9,-5.55 18.5,-5.55 7.73,0 13.97,1.85 18.7,5.55 4.73,3.71 7.27,8.85 7.6,15.45l-18.5 0c-0.13,-2.26 -0.97,-4.05 -2.5,-5.35 -1.53,-1.29 -3.5,-1.95 -5.9,-1.95 -2.07,0 -3.73,0.55 -5,1.65 -1.27,1.11 -1.9,2.69 -1.9,4.75 0,2.27 1.07,4.04 3.2,5.31 2.13,1.26 5.47,2.63 10,4.1 4.53,1.53 8.22,3 11.05,4.39 2.83,1.41 5.28,3.44 7.35,6.11 2.07,2.66 3.1,6.1 3.1,10.3 0,3.99 -1.02,7.63 -3.05,10.89 -2.03,3.27 -4.98,5.87 -8.85,7.8 -3.87,1.94 -8.43,2.91 -13.7,2.91z"/>
 </g>
</svg>
